<mxfile host="Electron" agent="Mozilla/5.0 (Windows NT 10.0; Win64; x64) AppleWebKit/537.36 (KHTML, like Gecko) draw.io/24.7.17 Chrome/128.0.6613.36 Electron/32.0.1 Safari/537.36" version="24.7.17">
  <diagram name="Page-1" id="edf60f1a-56cd-e834-aa8a-f176f3a09ee4">
    <mxGraphModel dx="1290" dy="725" grid="0" gridSize="10" guides="0" tooltips="1" connect="1" arrows="0" fold="1" page="1" pageScale="1" pageWidth="1100" pageHeight="850" background="none" math="0" shadow="0">
      <root>
        <mxCell id="0" />
        <mxCell id="1" parent="0" />
        <mxCell id="vOHie7vgboCuBgBLW_pP-41" style="edgeStyle=none;rounded=0;orthogonalLoop=1;jettySize=auto;html=1;exitX=1;exitY=0.5;exitDx=0;exitDy=0;exitPerimeter=0;entryX=0;entryY=0.5;entryDx=0;entryDy=0;" parent="1" source="hX9iUdr9xL5cJhyzc0mX-2" target="vOHie7vgboCuBgBLW_pP-2" edge="1">
          <mxGeometry relative="1" as="geometry" />
        </mxCell>
        <mxCell id="vOHie7vgboCuBgBLW_pP-42" style="edgeStyle=none;rounded=0;orthogonalLoop=1;jettySize=auto;html=1;exitX=1;exitY=0.5;exitDx=0;exitDy=0;exitPerimeter=0;entryX=0;entryY=0.5;entryDx=0;entryDy=0;" parent="1" source="hX9iUdr9xL5cJhyzc0mX-2" target="vOHie7vgboCuBgBLW_pP-17" edge="1">
          <mxGeometry relative="1" as="geometry" />
        </mxCell>
        <mxCell id="vOHie7vgboCuBgBLW_pP-43" style="edgeStyle=none;rounded=0;orthogonalLoop=1;jettySize=auto;html=1;exitX=1;exitY=0.5;exitDx=0;exitDy=0;exitPerimeter=0;entryX=0;entryY=0.5;entryDx=0;entryDy=0;" parent="1" source="hX9iUdr9xL5cJhyzc0mX-2" target="vOHie7vgboCuBgBLW_pP-24" edge="1">
          <mxGeometry relative="1" as="geometry" />
        </mxCell>
        <mxCell id="vOHie7vgboCuBgBLW_pP-44" style="edgeStyle=none;rounded=0;orthogonalLoop=1;jettySize=auto;html=1;exitX=1;exitY=0.5;exitDx=0;exitDy=0;exitPerimeter=0;entryX=0;entryY=0.5;entryDx=0;entryDy=0;" parent="1" source="hX9iUdr9xL5cJhyzc0mX-2" target="vOHie7vgboCuBgBLW_pP-3" edge="1">
          <mxGeometry relative="1" as="geometry" />
        </mxCell>
        <mxCell id="cgaGq_BDDK_Dhw6bbODb-16" style="edgeStyle=none;rounded=0;orthogonalLoop=1;jettySize=auto;html=1;exitX=1;exitY=0.5;exitDx=0;exitDy=0;exitPerimeter=0;entryX=0;entryY=0.5;entryDx=0;entryDy=0;" parent="1" source="hX9iUdr9xL5cJhyzc0mX-2" target="cgaGq_BDDK_Dhw6bbODb-1" edge="1">
          <mxGeometry relative="1" as="geometry" />
        </mxCell>
        <mxCell id="hX9iUdr9xL5cJhyzc0mX-2" value="Start&amp;nbsp;&lt;div&gt;Project&amp;nbsp;&lt;/div&gt;&lt;div&gt;Workflow&lt;/div&gt;" style="strokeWidth=1;html=1;shape=mxgraph.flowchart.terminator;whiteSpace=wrap;" parent="1" vertex="1">
          <mxGeometry x="59" y="241" width="100" height="60" as="geometry" />
        </mxCell>
        <mxCell id="vOHie7vgboCuBgBLW_pP-30" style="edgeStyle=orthogonalEdgeStyle;rounded=0;orthogonalLoop=1;jettySize=auto;html=1;exitX=1;exitY=0.5;exitDx=0;exitDy=0;entryX=0.5;entryY=0;entryDx=0;entryDy=0;" parent="1" source="vOHie7vgboCuBgBLW_pP-2" target="vOHie7vgboCuBgBLW_pP-29" edge="1">
          <mxGeometry relative="1" as="geometry" />
        </mxCell>
        <mxCell id="vOHie7vgboCuBgBLW_pP-2" value="&lt;div&gt;Download CCCL Data (lines)&lt;/div&gt;" style="rounded=1;whiteSpace=wrap;html=1;" parent="1" vertex="1">
          <mxGeometry x="217" y="129" width="110" height="54" as="geometry" />
        </mxCell>
        <mxCell id="OAOViZJA3EYtknrWgcMG-3" style="edgeStyle=orthogonalEdgeStyle;rounded=0;orthogonalLoop=1;jettySize=auto;html=1;exitX=1;exitY=0.5;exitDx=0;exitDy=0;entryX=0;entryY=0.5;entryDx=0;entryDy=0;" parent="1" source="vOHie7vgboCuBgBLW_pP-3" target="vOHie7vgboCuBgBLW_pP-38" edge="1">
          <mxGeometry relative="1" as="geometry" />
        </mxCell>
        <mxCell id="vOHie7vgboCuBgBLW_pP-3" value="&lt;div&gt;Download Pre/Post Storm DEM Data&lt;/div&gt;" style="rounded=1;whiteSpace=wrap;html=1;" parent="1" vertex="1">
          <mxGeometry x="219" y="443" width="110" height="54" as="geometry" />
        </mxCell>
        <mxCell id="vOHie7vgboCuBgBLW_pP-31" style="edgeStyle=orthogonalEdgeStyle;rounded=0;orthogonalLoop=1;jettySize=auto;html=1;exitX=1;exitY=0.5;exitDx=0;exitDy=0;entryX=0.5;entryY=0;entryDx=0;entryDy=0;" parent="1" source="vOHie7vgboCuBgBLW_pP-17" target="vOHie7vgboCuBgBLW_pP-25" edge="1">
          <mxGeometry relative="1" as="geometry">
            <Array as="points">
              <mxPoint x="440" y="235" />
              <mxPoint x="440" y="205" />
              <mxPoint x="607" y="205" />
            </Array>
          </mxGeometry>
        </mxCell>
        <mxCell id="vOHie7vgboCuBgBLW_pP-17" value="&lt;div&gt;Download LULC Data&amp;nbsp;&lt;span style=&quot;background-color: initial;&quot;&gt;(polygons)&lt;/span&gt;&lt;/div&gt;" style="rounded=1;whiteSpace=wrap;html=1;" parent="1" vertex="1">
          <mxGeometry x="217" y="208" width="110" height="54" as="geometry" />
        </mxCell>
        <mxCell id="vOHie7vgboCuBgBLW_pP-32" style="edgeStyle=orthogonalEdgeStyle;rounded=0;orthogonalLoop=1;jettySize=auto;html=1;exitX=1;exitY=0.5;exitDx=0;exitDy=0;entryX=0.5;entryY=1;entryDx=0;entryDy=0;" parent="1" source="vOHie7vgboCuBgBLW_pP-24" target="vOHie7vgboCuBgBLW_pP-25" edge="1">
          <mxGeometry relative="1" as="geometry" />
        </mxCell>
        <mxCell id="vOHie7vgboCuBgBLW_pP-33" style="edgeStyle=orthogonalEdgeStyle;rounded=0;orthogonalLoop=1;jettySize=auto;html=1;exitX=1;exitY=0.5;exitDx=0;exitDy=0;entryX=0.5;entryY=1;entryDx=0;entryDy=0;" parent="1" source="vOHie7vgboCuBgBLW_pP-24" target="vOHie7vgboCuBgBLW_pP-29" edge="1">
          <mxGeometry relative="1" as="geometry" />
        </mxCell>
        <mxCell id="vOHie7vgboCuBgBLW_pP-37" style="edgeStyle=orthogonalEdgeStyle;rounded=0;orthogonalLoop=1;jettySize=auto;html=1;exitX=1;exitY=0.5;exitDx=0;exitDy=0;entryX=0.5;entryY=1;entryDx=0;entryDy=0;" parent="1" source="vOHie7vgboCuBgBLW_pP-24" target="vOHie7vgboCuBgBLW_pP-36" edge="1">
          <mxGeometry relative="1" as="geometry" />
        </mxCell>
        <mxCell id="vOHie7vgboCuBgBLW_pP-24" value="&lt;div&gt;Download County Boundary data&lt;/div&gt;" style="rounded=1;whiteSpace=wrap;html=1;" parent="1" vertex="1">
          <mxGeometry x="220" y="354" width="112" height="54" as="geometry" />
        </mxCell>
        <mxCell id="vOHie7vgboCuBgBLW_pP-25" value="&lt;div&gt;Clip LULC Data Intersecting with&amp;nbsp; Selected County Boundary&amp;nbsp;&lt;/div&gt;" style="rounded=1;whiteSpace=wrap;html=1;" parent="1" vertex="1">
          <mxGeometry x="552" y="239" width="110" height="66" as="geometry" />
        </mxCell>
        <mxCell id="OAOViZJA3EYtknrWgcMG-5" style="edgeStyle=orthogonalEdgeStyle;rounded=0;orthogonalLoop=1;jettySize=auto;html=1;exitX=0;exitY=0.5;exitDx=0;exitDy=0;entryX=1;entryY=0.5;entryDx=0;entryDy=0;" parent="1" source="vOHie7vgboCuBgBLW_pP-28" target="vOHie7vgboCuBgBLW_pP-49" edge="1">
          <mxGeometry relative="1" as="geometry" />
        </mxCell>
        <mxCell id="vOHie7vgboCuBgBLW_pP-28" value="&lt;div&gt;Select/Export&amp;nbsp; LULC Data within certain distance of CCCL&amp;nbsp; or MHWL&lt;/div&gt;" style="rounded=1;whiteSpace=wrap;html=1;" parent="1" vertex="1">
          <mxGeometry x="854" y="660" width="126" height="75" as="geometry" />
        </mxCell>
        <mxCell id="vOHie7vgboCuBgBLW_pP-29" value="&lt;div&gt;Clip CCCL Data within Selected County Boundary&lt;/div&gt;" style="rounded=1;whiteSpace=wrap;html=1;" parent="1" vertex="1">
          <mxGeometry x="697" y="223" width="126" height="81" as="geometry" />
        </mxCell>
        <mxCell id="f8nVrUlt4xcclQAoqFWD-1" style="edgeStyle=orthogonalEdgeStyle;rounded=0;orthogonalLoop=1;jettySize=auto;html=1;exitX=1;exitY=0.5;exitDx=0;exitDy=0;entryX=0;entryY=0.5;entryDx=0;entryDy=0;" parent="1" source="vOHie7vgboCuBgBLW_pP-36" target="vOHie7vgboCuBgBLW_pP-25" edge="1">
          <mxGeometry relative="1" as="geometry" />
        </mxCell>
        <mxCell id="vOHie7vgboCuBgBLW_pP-36" value="&lt;div&gt;Select County to Process&lt;/div&gt;" style="rounded=1;whiteSpace=wrap;html=1;" parent="1" vertex="1">
          <mxGeometry x="373" y="274" width="110" height="45" as="geometry" />
        </mxCell>
        <mxCell id="fVS9Q-JqaxF0lcny1_pL-1" style="edgeStyle=orthogonalEdgeStyle;rounded=0;orthogonalLoop=1;jettySize=auto;html=1;exitX=0.5;exitY=1;exitDx=0;exitDy=0;entryX=0.5;entryY=0;entryDx=0;entryDy=0;" parent="1" source="vOHie7vgboCuBgBLW_pP-38" target="vOHie7vgboCuBgBLW_pP-48" edge="1">
          <mxGeometry relative="1" as="geometry" />
        </mxCell>
        <mxCell id="vOHie7vgboCuBgBLW_pP-38" value="&lt;div&gt;Based on observation points and DEM, run&amp;nbsp;&lt;i&gt;CreateViewSheds &lt;/i&gt;Script&lt;/div&gt;" style="rounded=1;whiteSpace=wrap;html=1;" parent="1" vertex="1">
          <mxGeometry x="428" y="430" width="131" height="81" as="geometry" />
        </mxCell>
        <mxCell id="w6Vyqvfs9IAuW3wY4UOc-4" style="edgeStyle=orthogonalEdgeStyle;rounded=0;orthogonalLoop=1;jettySize=auto;html=1;exitX=0;exitY=0.5;exitDx=0;exitDy=0;entryX=0.5;entryY=0;entryDx=0;entryDy=0;" parent="1" source="vOHie7vgboCuBgBLW_pP-48" target="w6Vyqvfs9IAuW3wY4UOc-3" edge="1">
          <mxGeometry relative="1" as="geometry" />
        </mxCell>
        <mxCell id="vOHie7vgboCuBgBLW_pP-48" value="Validate Viewshed Maps &amp;amp;&lt;div&gt;Investigate LULC Change&lt;/div&gt;&lt;div&gt;Pre/Post-Storm&lt;/div&gt;" style="shape=parallelogram;perimeter=parallelogramPerimeter;whiteSpace=wrap;html=1;fixedSize=1;" parent="1" vertex="1">
          <mxGeometry x="396" y="540" width="194" height="60" as="geometry" />
        </mxCell>
        <mxCell id="vOHie7vgboCuBgBLW_pP-49" value="&lt;div&gt;Run Calculate &lt;i&gt;ViewshedsLULCStats&amp;nbsp;&lt;/i&gt;Script&lt;/div&gt;" style="rounded=1;whiteSpace=wrap;html=1;" parent="1" vertex="1">
          <mxGeometry x="416" y="664" width="167" height="66" as="geometry" />
        </mxCell>
        <mxCell id="vOHie7vgboCuBgBLW_pP-50" value="End Project Workflow" style="strokeWidth=1;html=1;shape=mxgraph.flowchart.terminator;whiteSpace=wrap;" parent="1" vertex="1">
          <mxGeometry x="441" y="765" width="102" height="60" as="geometry" />
        </mxCell>
        <mxCell id="OAOViZJA3EYtknrWgcMG-4" style="edgeStyle=orthogonalEdgeStyle;rounded=0;orthogonalLoop=1;jettySize=auto;html=1;exitX=0.5;exitY=1;exitDx=0;exitDy=0;entryX=0.5;entryY=0;entryDx=0;entryDy=0;" parent="1" source="Xoo34MS97mZZL_hVCq9O-4" target="vOHie7vgboCuBgBLW_pP-28" edge="1">
          <mxGeometry relative="1" as="geometry" />
        </mxCell>
        <mxCell id="OAOViZJA3EYtknrWgcMG-6" style="edgeStyle=orthogonalEdgeStyle;rounded=0;orthogonalLoop=1;jettySize=auto;html=1;exitX=0.5;exitY=1;exitDx=0;exitDy=0;entryX=0.5;entryY=0;entryDx=0;entryDy=0;" parent="1" source="Xoo34MS97mZZL_hVCq9O-4" target="OAOViZJA3EYtknrWgcMG-1" edge="1">
          <mxGeometry relative="1" as="geometry" />
        </mxCell>
        <mxCell id="Xoo34MS97mZZL_hVCq9O-4" value="&lt;div&gt;Project Clipped LULC, MHWL and CCCL Layers to Local Coordinates&lt;/div&gt;" style="rounded=1;whiteSpace=wrap;html=1;" parent="1" vertex="1">
          <mxGeometry x="863" y="218" width="110" height="79" as="geometry" />
        </mxCell>
        <mxCell id="cgaGq_BDDK_Dhw6bbODb-11" style="edgeStyle=orthogonalEdgeStyle;rounded=0;orthogonalLoop=1;jettySize=auto;html=1;exitX=1;exitY=0.5;exitDx=0;exitDy=0;entryX=0;entryY=0.5;entryDx=0;entryDy=0;" parent="1" source="cgaGq_BDDK_Dhw6bbODb-1" target="cgaGq_BDDK_Dhw6bbODb-10" edge="1">
          <mxGeometry relative="1" as="geometry" />
        </mxCell>
        <mxCell id="cgaGq_BDDK_Dhw6bbODb-1" value="&lt;div&gt;Load MHW We Service (lines)&lt;/div&gt;" style="rounded=1;whiteSpace=wrap;html=1;" parent="1" vertex="1">
          <mxGeometry x="216" y="40" width="110" height="54" as="geometry" />
        </mxCell>
        <mxCell id="oo3cMWogjGaX0PPPFoNJ-1" style="edgeStyle=orthogonalEdgeStyle;rounded=0;orthogonalLoop=1;jettySize=auto;html=1;exitX=1;exitY=0.5;exitDx=0;exitDy=0;entryX=0.5;entryY=0;entryDx=0;entryDy=0;" parent="1" source="cgaGq_BDDK_Dhw6bbODb-10" target="Xoo34MS97mZZL_hVCq9O-4" edge="1">
          <mxGeometry relative="1" as="geometry" />
        </mxCell>
        <mxCell id="cgaGq_BDDK_Dhw6bbODb-10" value="Digitize Line(s) Along MHW in Area of Interest" style="rounded=1;whiteSpace=wrap;html=1;" parent="1" vertex="1">
          <mxGeometry x="464" y="39" width="110" height="55" as="geometry" />
        </mxCell>
        <mxCell id="cgaGq_BDDK_Dhw6bbODb-13" style="edgeStyle=orthogonalEdgeStyle;rounded=0;orthogonalLoop=1;jettySize=auto;html=1;exitX=1;exitY=0.5;exitDx=0;exitDy=0;entryX=0.009;entryY=0.58;entryDx=0;entryDy=0;entryPerimeter=0;" parent="1" source="vOHie7vgboCuBgBLW_pP-29" target="Xoo34MS97mZZL_hVCq9O-4" edge="1">
          <mxGeometry relative="1" as="geometry" />
        </mxCell>
        <mxCell id="OAOViZJA3EYtknrWgcMG-2" style="edgeStyle=orthogonalEdgeStyle;rounded=0;orthogonalLoop=1;jettySize=auto;html=1;exitX=0;exitY=0.5;exitDx=0;exitDy=0;entryX=1;entryY=0.5;entryDx=0;entryDy=0;" parent="1" source="OAOViZJA3EYtknrWgcMG-1" target="vOHie7vgboCuBgBLW_pP-38" edge="1">
          <mxGeometry relative="1" as="geometry" />
        </mxCell>
        <mxCell id="OAOViZJA3EYtknrWgcMG-1" value="&lt;div&gt;Select CCCL or MHWL and run &lt;i&gt;CreateObservationPoints&amp;nbsp;&lt;/i&gt;&lt;/div&gt;&lt;div&gt;Script&lt;/div&gt;" style="rounded=1;whiteSpace=wrap;html=1;" parent="1" vertex="1">
          <mxGeometry x="684" y="437" width="165" height="66" as="geometry" />
        </mxCell>
        <mxCell id="OAOViZJA3EYtknrWgcMG-7" style="edgeStyle=orthogonalEdgeStyle;rounded=0;orthogonalLoop=1;jettySize=auto;html=1;exitX=0.5;exitY=1;exitDx=0;exitDy=0;entryX=0.5;entryY=0;entryDx=0;entryDy=0;entryPerimeter=0;" parent="1" source="vOHie7vgboCuBgBLW_pP-49" target="vOHie7vgboCuBgBLW_pP-50" edge="1">
          <mxGeometry relative="1" as="geometry" />
        </mxCell>
        <mxCell id="w6Vyqvfs9IAuW3wY4UOc-6" value="No" style="edgeStyle=orthogonalEdgeStyle;rounded=0;orthogonalLoop=1;jettySize=auto;html=1;exitX=1;exitY=0.5;exitDx=0;exitDy=0;entryX=0.5;entryY=1;entryDx=0;entryDy=0;" parent="1" source="w6Vyqvfs9IAuW3wY4UOc-3" target="vOHie7vgboCuBgBLW_pP-48" edge="1">
          <mxGeometry relative="1" as="geometry" />
        </mxCell>
        <mxCell id="w6Vyqvfs9IAuW3wY4UOc-3" value="Is viewshed&amp;nbsp;&lt;div&gt;valid?&lt;/div&gt;" style="rhombus;whiteSpace=wrap;html=1;" parent="1" vertex="1">
          <mxGeometry x="232" y="595" width="108" height="91" as="geometry" />
        </mxCell>
        <mxCell id="w6Vyqvfs9IAuW3wY4UOc-5" value="Yes" style="edgeStyle=orthogonalEdgeStyle;rounded=0;orthogonalLoop=1;jettySize=auto;html=1;exitX=0.5;exitY=1;exitDx=0;exitDy=0;entryX=0;entryY=0.652;entryDx=0;entryDy=0;entryPerimeter=0;" parent="1" source="w6Vyqvfs9IAuW3wY4UOc-3" target="vOHie7vgboCuBgBLW_pP-49" edge="1">
          <mxGeometry relative="1" as="geometry" />
        </mxCell>
      </root>
    </mxGraphModel>
  </diagram>
</mxfile>
